<svg xmlns="http://www.w3.org/2000/svg" viewBox="0 0 64 64" fill="none">
  <title>Page Icon</title>

  <!-- transparent background -->

  <!-- lightning backdrop -->
  <path d="M18 6L36 16L30 18L42 31L33 30L46 47L37 43L38 57L24 40L32 40L22 28L30 29L18 6Z" fill="#111111"/>

  <!-- trainer silhouette -->
  <path d="M31 15c6 0 11 4 12 9-1 4-4 7-9 8l-6 1c-5-1-9-3-11-7 0-6 6-11 14-11Z" fill="#111111"/>
  <path d="M22 18c2-4 7-7 12-7 4 0 8 1 11 4l-5 1c-3-2-6-2-9-2-4 1-6 2-9 4Z" fill="#111111"/>
  <path d="M40 16c4 0 8 2 10 5l-7 1c-1-2-2-4-3-6Z" fill="#111111"/>

  <!-- body -->
  <path d="M24 33c2-4 5-6 10-6 4 0 8 2 10 5l4 14-7-2-1 6-5-4-3 6-5-6-4 4-1-6-7 2 3-13c1-1 3-1 6 0Z" fill="#111111"/>

  <!-- arms -->
  <path d="M21 35L14 37L9 35L7 38L13 41L20 41L24 40L21 35Z" fill="#111111"/>
  <path d="M43 36L50 38L55 36L57 39L51 42L44 42L40 41L43 36Z" fill="#111111"/>

  <!-- coat tails -->
  <path d="M24 45L16 56L25 52L29 58L31 52L24 45Z" fill="#111111"/>
  <path d="M42 45L50 56L41 52L37 58L35 52L42 45Z" fill="#111111"/>

  <!-- white cutouts for contrast -->
  <path d="M29 21c2-2 4-3 7-3-2 2-3 4-3 6l2 2h-4l-2-5Z" fill="#FFFFFF"/>
  <path d="M28 33l2 11 2-4-1-7h-3Z" fill="#FFFFFF"/>
  <path d="M36 33l-1 7 2 4 2-11h-3Z" fill="#FFFFFF"/>

  <!-- optional border-safe framing space built into viewBox -->
</svg>
