<?xml version="1.0" encoding="UTF-8"?>
<svg width="512" height="512" viewBox="0 0 512 512" fill="none" xmlns="http://www.w3.org/2000/svg">
  <!-- Transparent background -->

  <!-- Back lightning mark -->
  <path d="M136 92L238 150L202 154L278 232L224 228L308 338L252 312L262 394L178 290L228 292L164 214L214 218L136 92Z" fill="#000000"/>

  <!-- Hair / energy spikes -->
  <path d="M279 139L326 117L315 151L354 139L334 170L382 173L345 193L387 216L337 218L366 250L320 236L328 274L289 248L279 139Z" fill="#000000"/>

  <!-- Torso / jacket -->
  <path d="M198 250C213 223 240 207 273 207C304 207 331 220 345 248L370 335L325 323L319 359L286 336L260 382L228 336L197 358L193 320L148 333L171 251C180 242 189 244 198 250Z" fill="#000000"/>

  <!-- Head -->
  <path d="M214 196C214 153 247 123 290 123C323 123 349 144 360 173C354 195 337 210 313 215L274 219C250 216 229 209 214 196Z" fill="#000000"/>

  <!-- Cap -->
  <path d="M222 161C234 132 265 113 299 113C327 113 350 124 366 143L338 145C318 131 299 126 278 130C258 133 242 143 229 160L222 161Z" fill="#000000"/>
  <path d="M337 145C364 147 388 159 405 181L365 182C355 169 347 156 337 145Z" fill="#000000"/>

  <!-- Left arm -->
  <path d="M179 269L138 282L98 262L84 282L122 308L164 307L196 299L179 269Z" fill="#000000"/>
  <!-- Right arm -->
  <path d="M336 279L377 290L416 274L430 294L392 318L350 316L319 309L336 279Z" fill="#000000"/>

  <!-- Coat tails -->
  <path d="M191 323L137 398L196 374L225 418L237 378L191 323Z" fill="#000000"/>
  <path d="M326 324L381 398L321 373L292 418L281 378L326 324Z" fill="#000000"/>

  <!-- Medal / pendant -->
  <circle cx="257" cy="252" r="12" fill="#000000"/>

  <!-- Face cutout -->
  <path d="M247 170C258 157 272 149 289 149C280 157 274 166 270 178L284 194L265 194L247 170Z" fill="white"/>

  <!-- Jacket inner cutouts -->
  <path d="M231 245L247 322L257 299L253 244H231Z" fill="white"/>
  <path d="M282 244L278 298L288 322L304 246L282 244Z" fill="white"/>

  <!-- Hands cutouts -->
  <path d="M110 278C126 277 142 282 154 292C142 295 132 300 123 307C111 304 101 296 94 286L110 278Z" fill="white"/>
  <path d="M402 289C390 279 375 274 359 274L372 286C381 289 390 295 398 305C410 302 420 294 426 284L402 289Z" fill="white"/>

  <!-- Small lightning details -->
  <path d="M118 349L160 326L150 357L190 353L141 389L149 364L118 349Z" fill="#000000"/>
  <path d="M345 351L392 335L381 364L418 370L362 392L372 370L345 351Z" fill="#000000"/>
</svg>
